<svg width="26" height="26" viewBox="0 0 26 26" fill="none" xmlns="http://www.w3.org/2000/svg">
<path d="M25.5707 23.5293L19.8613 17.8174C21.5731 15.5866 22.3724 12.7882 22.0968 9.98981C21.8213 7.19141 20.4916 4.6026 18.3775 2.74852C16.2634 0.89445 13.5232 -0.0860467 10.7128 0.00593207C7.90237 0.0979109 5.23215 1.25548 3.24381 3.24381C1.25548 5.23215 0.0979109 7.90237 0.00593207 10.7128C-0.0860467 13.5232 0.89445 16.2634 2.74852 18.3775C4.6026 20.4916 7.19141 21.8213 9.98981 22.0968C12.7882 22.3724 15.5866 21.5731 17.8174 19.8613L23.5317 25.5767C23.6659 25.7109 23.8252 25.8174 24.0006 25.89C24.1759 25.9626 24.3638 26 24.5536 26C24.7434 26 24.9313 25.9626 25.1067 25.89C25.282 25.8174 25.4413 25.7109 25.5755 25.5767C25.7097 25.4425 25.8162 25.2832 25.8888 25.1079C25.9614 24.9325 25.9988 24.7446 25.9988 24.5548C25.9988 24.365 25.9614 24.1771 25.8888 24.0018C25.8162 23.8264 25.7097 23.6671 25.5755 23.5329L25.5707 23.5293ZM2.90964 11.0849C2.90964 9.46797 3.38911 7.88737 4.28741 6.54296C5.18572 5.19855 6.46252 4.15071 7.95635 3.53194C9.45018 2.91318 11.094 2.75128 12.6798 3.06672C14.2656 3.38217 15.7223 4.16078 16.8657 5.30411C18.009 6.44744 18.7876 7.90413 19.103 9.48997C19.4185 11.0758 19.2566 12.7196 18.6378 14.2134C18.0191 15.7072 16.9712 16.984 15.6268 17.8824C14.2824 18.7807 12.7018 19.2601 11.0849 19.2601C8.91736 19.2579 6.83925 18.3959 5.30657 16.8632C3.7739 15.3305 2.91187 13.2524 2.90964 11.0849Z" fill="#182854"/>
</svg>
